_________________________  Visit us at _________________________
  
http://p2pdl.com  ____________________________  http://p2pdl.com

 
http://www.shotpix.com/images/76027807859314935812.jpg


Taylor Swift - Just For You 2012 WEB-DLRip 720p x264 AAC [VX] [P2PDL]

Known for her catchy lyrics and heartwarming smile, Taylor Swift has exploded on the music scene, 
breaking all boundaries between pop and country genres. But Swift wasn't always a global superstar. 
Growing up on a Christmas tree farm in Pennsylvania, she was a long way from the life she leads nowΓÇöcomplete with sold-out tours,
hit songs and high-profile romances. Learn how her songwriting helped her cope with her teenage troubles and get all the details on her past loves 
including Joe Jonas, Jake Gyllenhaal and John Mayer. Watch as Swift explores her musical talents and pens some of 
the decade's most popular albums in this up-close-and-personal look at America s sweetheart.				
 
http://www.amazon.com/Taylor-Swift-Just-You/dp/B0064WDX16


General
Complete name                  : Taylor Swift - Just For You 2012 WEB-DLRip 720p x264 AAC [VX] [P2PDL].mp4
Format                         : MPEG-4
Format profile                 : Base Media / Version 2
Codec ID                       : mp42
File size                      : 313 MiB
Duration                       : 59mn 7s
Overall bit rate mode          : Variable

Source                         : 1080p WEB-DL AAC2.0 H.264-TrollHD (Thanks)

Video
ID                             : 1
Format                         : AVC
Format/Info                    : Advanced Video Codec
Width                          : 1 280 pixels
Height                         : 720 pixels
Display aspect ratio           : 16:9
Frame rate mode                : Constant
Frame rate                     : 25.000 fps
Color space                    : YUV
Chroma subsampling             : 4:2:0
Bit depth                      : 8 bits
Scan type                      : Progressive
Bits/(Pixel*Frame)             : 0.028
Stream size                    : 271 MiB (86%)

Audio
ID                             : 2
Format                         : AAC
Format/Info                    : Advanced Audio Codec
Channel(s)                     : 2 channels
Channel positions              : Front: L R
Sampling rate                  : 48.0 KHz
Stream size                    : 40.6 MiB (13%)
Language                       : English

Subtitle                       : N/a


Screens:
 
http://www.shotpix.com/images/93931289498084039108.jpg 
http://www.shotpix.com/images/91786393749274318763.jpg 
http://www.shotpix.com/images/96961570954362183036.jpg 
http://www.shotpix.com/images/66746065947583353487.jpg 
http://www.shotpix.com/images/89351465501014386907.jpg

Thumbs:
 
http://www.shotpix.com/images/37339366386280870054.jpg

----------------------------------------------------------------------------------------------------


Check Sample to be sure. Recommended to use latest version of VLC player. 
Install K-Lite Codec Pack or shark007 codecs in case of any kind of problem in playback (For non-VLC Media Player users). 
Alternatively, install Core AVC codecs, the fastest decoder that there is coupled with Community Center Codec Pack and play
on Windows Media Player Classic. Check sample to be sure.

Greets to: VYTO, a2zRG, Stumpie1971, Sheychi, Neon, 
Suzitastik, MarGe, Ash968, Tifon, TorDigger, StylishSaLh, Caveman and 
staff members at ExtraTorrent, TPB,KAT, 1337x, PublicHD, Ahashare, TorrentMafia, 
Limetorrents, BTScene, P2PDL, and all others.

Encoder Notes: Looking For Early Access To Anything You Can Provide DVDScr, R5, DVDR, BluRay, Direct
Audio, Early Music Releases, Seedboxes, Dedicated Servers anything u can provide, Advance / Promo CDs/
DVDs. If You Got anything to offer contact me at "prg@hush.com".

Facebook Fan Page: www . facebook . com / p2pdl